<svg xmlns="http://www.w3.org/2000/svg" width="240" height="190" viewBox="0 0 240 190">
  <ellipse cx="120" cy="30" rx="92" ry="22" fill="#fff4ea" stroke="#d9a9a0" stroke-width="6"/>
  <path d="M44 30 L196 30 L178 168 Q120 188 62 168 Z" fill="#ffe9ee" stroke="#d9a9a0" stroke-width="6"/>
  <polygon points="72,38 98,38 88,172 64,168" fill="#ff8ea3" opacity="0.8"/>
  <polygon points="140,38 166,38 176,168 152,172" fill="#ff8ea3" opacity="0.8"/>

  <!-- rounded ^^ eyes -->
  <path d="M86 110 Q95 98 104 110" fill="none" stroke="#875c66" stroke-width="6" stroke-linecap="round"/>
  <path d="M136 110 Q145 98 154 110" fill="none" stroke="#875c66" stroke-width="6" stroke-linecap="round"/>

  <!-- soft cheek base -->
  <ellipse cx="79" cy="123" rx="11" ry="8" fill="#ffb4c0" opacity="0.6"/>
  <ellipse cx="161" cy="123" rx="11" ry="8" fill="#ffb4c0" opacity="0.6"/>

  <!-- chon chon cheeks -->
  <ellipse cx="73" cy="123" rx="2.8" ry="2.2" fill="#f78fa7" opacity="0.95"/>
  <ellipse cx="79" cy="123" rx="2.8" ry="2.2" fill="#f78fa7" opacity="0.95"/>
  <ellipse cx="85" cy="123" rx="2.8" ry="2.2" fill="#f78fa7" opacity="0.95"/>

  <ellipse cx="155" cy="123" rx="2.8" ry="2.2" fill="#f78fa7" opacity="0.95"/>
  <ellipse cx="161" cy="123" rx="2.8" ry="2.2" fill="#f78fa7" opacity="0.95"/>
  <ellipse cx="167" cy="123" rx="2.8" ry="2.2" fill="#f78fa7" opacity="0.95"/>
</svg>
